{"title":"Strike.Back.S03E01E02.HDTV.Xvid-MrX","uid":7543709,"size":1048314674,"categoryP":"video","categoryS":"tv_shows","magnet":"?xt=urn:btih:09493ba062d1aa339ad3ee11f646b2560301c5b2&amp;dn=Strike.Back.S03E01E02.HDTV.Xvid-MrX&amp;tr=udp%3A%2F%2Ftracker.openbittorrent.com%3A80&amp;tr=udp%3A%2F%2Fopen.demonii.com%3A1337&amp;tr=udp%3A%2F%2Ftracker.coppersurfer.tk%3A6969&amp;tr=udp%3A%2F%2Fexodus.desync.com%3A6969","seeders":2,"leechers":1,"uploader":"D.N.M","files":-1,"time":1345290648,"description":"Strike.Back.S03E01E02.HDTV.Xvid-MrX\n\n\nGeneral\nComplete name                            : Strike.Back.S03E01E02.HDTV.Xvid-MrX.avi\nFormat                                   : AVI\nFormat/Info                              : Audio Video Interleave\nFile size                                : 1 000 MiB\nDuration                                 : 1h 31mn\nOverall bit rate mode                    : Variable\nOverall bit rate                         : 1 524 Kbps\n\nVideo\nID                                       : 0\nFormat                                   : MPEG-4 Visual\nFormat profile                           : Advanced Simple@L5\nFormat settings, BVOP                    : 1\nFormat settings, QPel                    : No\nFormat settings, GMC                     : No warppoints\nFormat settings, Matrix                  : Default (H.263)\nMuxing mode                              : Packed bitstream\nCodec ID                                 : XVID\nCodec ID/Hint                            : XviD\nDuration                                 : 1h 31mn\nBit rate                                 : 1 366 Kbps\nWidth                                    : 640 pixels\nHeight                                   : 352 pixels\nDisplay aspect ratio                     : 16:9\nFrame rate                               : 23.976 fps\nColor space                              : YUV\nChroma subsampling                       : 4:2:0\nBit depth                                : 8 bits\nScan type                                : Progressive\nCompression mode                         : Lossy\nBits/(Pixel*Frame)                       : 0.253\nStream size                              : 896 MiB (90%)\nWriting library                          : XviD 1.2.1 (UTC 2008-12-04)\n\nAudio\nID                                       : 1\nFormat                                   : MPEG Audio\nFormat version                           : Version 1\nFormat profile                           : Layer 3\nMode                                     : Joint stereo\nCodec ID                                 : 55\nCodec ID/Hint                            : MP3\nDuration                                 : 1h 31mn\nBit rate mode                            : Variable\nBit rate                                 : 145 Kbps\nMinimum bit rate                         : 32.0 Kbps\nChannel(s)                               : 2 channels\nSampling rate                            : 48.0 KHz\nCompression mode                         : Lossy\nStream size                              : 95.2 MiB (10%)\nAlignment                                : Aligned on interleaves\nInterleave, duration                     : 24 ms (0.58 video frame)\nInterleave, preload duration             : 156 ms\nTitle                                    : Strike.Back.S03E01E02\nWriting library                          : LAME3.99r\nEncoding settings                        : -m j -V 3 -q 0 -lowpass 18 --vbr-new -b 32\n","torrent":{"xt":"urn:btih:09493ba062d1aa339ad3ee11f646b2560301c5b2","amp;dn":"Strike.Back.S03E01E02.HDTV.Xvid-MrX","amp;tr":["udp%3A%2F%2Ftracker.openbittorrent.com%3A80","udp%3A%2F%2Fopen.demonii.com%3A1337","udp%3A%2F%2Ftracker.coppersurfer.tk%3A6969","udp%3A%2F%2Fexodus.desync.com%3A6969"],"infoHash":"09493ba062d1aa339ad3ee11f646b2560301c5b2","infoHashBuffer":{"type":"Buffer","data":[9,73,59,160,98,209,170,51,154,211,238,17,246,70,178,86,3,1,197,178]},"announce":[],"urlList":[]}}